# Blender 5.1.1
# www.blender.org
mtllib mech-cockpit.mtl
o Plane
v 0.106445 -0.168345 -2.938966
v 0.106445 -0.238352 -2.938966
v 0.106445 -0.168345 -2.868959
v 0.106445 -0.238352 -2.868959
v 0.176453 -0.238352 -2.868959
v 0.176453 -0.168345 -2.868959
v 0.176453 -0.238352 -2.938966
v 0.176453 -0.168345 -2.938966
v 1.403463 0.551137 -1.380208
v 1.403463 0.621144 -1.380208
v 1.473470 0.621144 -1.380208
v 1.473470 0.551137 -1.380208
v -0.106445 -0.168345 -2.938966
v -0.106445 -0.238352 -2.938966
v -0.106445 -0.168345 -2.868959
v -0.106445 -0.238352 -2.868959
v -0.176453 -0.238352 -2.868959
v -0.176453 -0.168345 -2.868959
v -0.176453 -0.238352 -2.938966
v -0.176453 -0.168345 -2.938966
v -1.403463 0.551137 -1.380208
v -1.403463 0.621144 -1.380208
v -1.473470 0.621144 -1.380208
v -1.473470 0.551137 -1.380208
v 0.106445 -0.521250 -2.938966
v 0.106445 -0.451243 -2.938966
v 0.106445 -0.521250 -2.868959
v 0.106445 -0.451243 -2.868959
v 0.176453 -0.451243 -2.868959
v 0.176453 -0.521250 -2.868959
v 0.176453 -0.451243 -2.938966
v 0.176453 -0.521250 -2.938966
v 1.403463 -1.240732 -1.380208
v 1.403463 -1.310739 -1.380208
v 1.473470 -1.310739 -1.380208
v 1.473470 -1.240732 -1.380208
v -0.106445 -0.521250 -2.938966
v -0.106445 -0.451243 -2.938966
v -0.106445 -0.521250 -2.868959
v -0.106445 -0.451243 -2.868959
v -0.176453 -0.451243 -2.868959
v -0.176453 -0.521250 -2.868959
v -0.176453 -0.451243 -2.938966
v -0.176453 -0.521250 -2.938966
v -1.403463 -1.240732 -1.380208
v -1.403463 -1.310739 -1.380208
v -1.473470 -1.310739 -1.380208
v -1.473470 -1.240732 -1.380208
vn -1.0000 -0.0000 -0.0000
vn -0.0000 -0.0000 -1.0000
vn 1.0000 -0.0000 -0.0000
vn -0.7540 -0.0000 0.6569
vn -0.0000 -1.0000 -0.0000
vn -0.0000 1.0000 -0.0000
vn -0.0000 -0.0000 1.0000
vn -0.0000 0.8835 -0.4685
vn 0.7540 -0.0000 -0.6569
vn -0.0000 -0.8835 0.4685
vn 0.7540 -0.0000 0.6569
vn -0.7540 -0.0000 -0.6569
vn -0.0000 -0.8835 -0.4685
vn -0.0000 0.8835 0.4685
vt 0.375000 0.000000
vt 0.625000 0.000000
vt 0.625000 0.250000
vt 0.375000 0.250000
vt 0.625000 0.500000
vt 0.375000 0.500000
vt 0.625000 0.750000
vt 0.375000 0.750000
vt 0.125000 0.500000
vt 0.125000 0.750000
vt 0.875000 0.500000
vt 0.875000 0.750000
vt 0.625000 1.000000
vt 0.375000 1.000000
s 0
f 4/1/1 3/2/1 1/3/1 2/4/1
f 2/4/2 1/3/2 8/5/2 7/6/2
f 7/6/3 8/5/3 6/7/3 5/8/3
f 3/2/4 4/1/4 9/1/4 10/2/4
f 2/9/5 7/6/5 5/8/5 4/10/5
f 8/5/6 1/11/6 3/12/6 6/7/6
f 12/8/7 11/7/7 10/13/7 9/14/7
f 6/7/8 3/12/8 10/12/8 11/7/8
f 5/8/9 6/7/9 11/7/9 12/8/9
f 4/10/10 5/8/10 12/8/10 9/10/10
f 16/1/3 14/4/3 13/3/3 15/2/3
f 14/4/2 19/6/2 20/5/2 13/3/2
f 19/6/1 17/8/1 18/7/1 20/5/1
f 15/2/11 22/2/11 21/1/11 16/1/11
f 14/9/5 16/10/5 17/8/5 19/6/5
f 20/5/6 18/7/6 15/12/6 13/11/6
f 24/8/7 21/14/7 22/13/7 23/7/7
f 18/7/8 23/7/8 22/12/8 15/12/8
f 17/8/12 24/8/12 23/7/12 18/7/12
f 16/10/10 21/10/10 24/8/10 17/8/10
f 28/1/1 26/4/1 25/3/1 27/2/1
f 26/4/2 31/6/2 32/5/2 25/3/2
f 31/6/3 29/8/3 30/7/3 32/5/3
f 27/2/4 34/2/4 33/1/4 28/1/4
f 26/9/6 28/10/6 29/8/6 31/6/6
f 32/5/5 30/7/5 27/12/5 25/11/5
f 36/8/7 33/14/7 34/13/7 35/7/7
f 30/7/13 35/7/13 34/12/13 27/12/13
f 29/8/9 36/8/9 35/7/9 30/7/9
f 28/10/14 33/10/14 36/8/14 29/8/14
f 40/1/3 39/2/3 37/3/3 38/4/3
f 38/4/2 37/3/2 44/5/2 43/6/2
f 43/6/1 44/5/1 42/7/1 41/8/1
f 39/2/11 40/1/11 45/1/11 46/2/11
f 38/9/6 43/6/6 41/8/6 40/10/6
f 44/5/5 37/11/5 39/12/5 42/7/5
f 48/8/7 47/7/7 46/13/7 45/14/7
f 42/7/13 39/12/13 46/12/13 47/7/13
f 41/8/12 42/7/12 47/7/12 48/8/12
f 40/10/14 41/8/14 48/8/14 45/10/14
o Cube
v 0.680230 -0.839688 -2.272048
v 0.680230 -0.749537 -2.219747
v 0.203780 -0.516361 -2.829356
v 0.203780 -0.426211 -2.777055
v -0.680230 -0.839688 -2.272048
v -0.680230 -0.749537 -2.219747
v -0.203780 -0.516361 -2.829356
v -0.203780 -0.426211 -2.777055
vn 0.8040 0.2984 -0.5143
vn -0.0000 0.5018 -0.8650
vn -0.8040 0.2984 -0.5143
vn -0.0000 -0.5018 0.8650
vn -0.0000 -0.8650 -0.5018
vn -0.0000 0.8650 0.5018
vt 0.375000 0.000000
vt 0.625000 0.000000
vt 0.625000 0.250000
vt 0.375000 0.250000
vt 0.625000 0.500000
vt 0.375000 0.500000
vt 0.625000 0.750000
vt 0.375000 0.750000
vt 0.625000 1.000000
vt 0.375000 1.000000
vt 0.125000 0.500000
vt 0.125000 0.750000
vt 0.875000 0.500000
vt 0.875000 0.750000
s 0
f 49/15/15 51/18/15 52/17/15 50/16/15
f 51/18/16 55/20/16 56/19/16 52/17/16
f 55/20/17 53/22/17 54/21/17 56/19/17
f 53/22/18 49/24/18 50/23/18 54/21/18
f 51/25/19 49/26/19 53/22/19 55/20/19
f 56/19/20 54/21/20 50/28/20 52/27/20
